<?xml version="1.0" encoding="utf-8"?>
<!-- Generator: Adobe Illustrator 22.0.1, SVG Export Plug-In . SVG Version: 6.00 Build 0)  -->
<svg version="1.1" id="Layer_1" xmlns="http://www.w3.org/2000/svg" xmlns:xlink="http://www.w3.org/1999/xlink" x="0px" y="0px"
	 viewBox="0 0 1122.5 800" style="enable-background:new 0 0 1122.5 800;" xml:space="preserve">
<style type="text/css">
	.st0{fill:#070707;}
	.st1{fill:none;}
	.st2{fill:#FFFFFF;}
	.st3{fill:#F8F7F7;}
	.st4{fill:#333333;}
</style>
<g>
	<path class="st0" d="M598.6,86.8c-16-16-36.1-26.3-57.9-29.9c0.3-0.4,0.3-0.7,0.3-0.8c0-0.3-0.2-0.9-1.1-1.2
		c-0.2-0.1-0.5-0.1-1-0.1c-1.5,0-4.8,0.4-8.3,0.9c-2.6-0.2-5.3-0.3-7.9-0.3c-2.4,0-4.8,0.1-7.2,0.2l-0.3-0.4l-0.6,0.3
		c0,0-0.2,0.1-0.4,0.2c-25.5,2-49.2,12.8-67.4,31.1c-20.3,20.3-31.4,47.2-31.4,75.9c0,28.7,11.2,55.6,31.4,75.9
		c20.3,20.3,47.2,31.4,75.9,31.4c28.7,0,55.6-11.2,75.9-31.4c20.3-20.3,31.4-47.2,31.4-75.9C630.1,134,618.9,107,598.6,86.8z
		 M619.4,162.7c0,22.8-8,43.8-21.2,60.4l-30.7-9.6l0.3-12.9c0.4-1,2.7-7,5.2-13.2c1.2-2.9,1.8-5.2,2.3-6.8c0.3-1,0.5-1.9,0.7-2.3
		c0.3,0.1,0.7,0.2,1,0.2c1.1,0,2.4-0.7,2.9-4c0.1-1,0.1-3.2,0-6c-0.1-4-0.3-9.4,0.3-11.2c0.9-3,2.2-12.2,1.9-15.8
		c-0.2-2.2-2.1-3.5-5.1-3.6l3.3-20.2l0-0.1c0-0.1-1.5-12.4-1.9-15.8c-0.3-3.1-9.5-16.4-12.8-21l6.7,0.4l-12.5-8
		C594.7,87.9,619.4,122.5,619.4,162.7z M537.3,57l-2.2,0.9l12.9,4l-2.9,1.1l12.6,6.2l-6.3,0.9l14.7,9.4l-3.8-0.2l1,1.4
		c5.1,7.1,13.3,19.2,13.5,21.6c0.3,3.2,1.7,14.4,1.8,15.7l-3.4,20.9l-0.2,1.1l1.1-0.1c0,0,0.3,0,0.8,0c1.5,0,3.4,0.4,3.6,2.1
		c0.3,3.2-0.9,12-1.8,15.2c-0.6,2-0.5,7.2-0.4,11.8c0.1,2.5,0.1,4.8,0,5.7c-0.2,1.6-0.7,2.5-1.2,2.5c-0.1,0-0.3,0-0.4-0.1
		c-0.2-0.1-0.4-0.1-0.6-0.1c-1.3,0-1.6,1.3-2.2,3.5c-0.4,1.6-1.1,3.8-2.2,6.6c-2.8,6.7-5.2,13.3-5.3,13.3l-0.1,0.1l-0.3,14.4
		l6.2,1.9c7.1,7.7,0.2,24.1-3.1,31c-13.7,7.5-29.5,11.8-46.2,11.8c-15.2,0-29.6-3.5-42.4-9.8l-0.3-1c0,0-2-5.1-3.2-14.2
		c-0.8-5.8,0.9-9,2.3-10.6l3.6-1.3l0.1-0.4c0.1-0.3,1.3-6.3-0.6-14.9c-0.7-3.2-2-6.5-3.2-9.8c-0.8-2-1.5-4-2.2-6
		c-2.4-7.6-3.8-13.9-3.9-14.4c0-0.6-0.5-0.9-0.9-0.9c-0.5,0-0.7,0.3-1,0.7c-0.3,0.4-1,1.3-1.4,1.3c-0.3,0-0.8-0.5-1.4-2
		c-2.1-5.7-2.1-8.4-2.1-12.4c0-1.8-1.2-5.2-2.5-8.7c-1.4-3.7-3.4-9.2-2.6-10.3c0.7-1,1.3-1.1,1.8-1.1c0.4,0,0.8,0.1,1.3,0.2
		c0.4,0.1,0.8,0.2,1.3,0.2c0.3,0,0.6-0.1,0.8-0.3c0.7-0.8,0.5-3.1-0.7-10.8c-0.4-2.9-0.8-5.6-0.8-6.7c0-3.5,6.2-32.8,8.7-35.3
		c1-1,1.4-2,1.1-2.9c-0.2-0.7-0.8-1.1-1.4-1.4l5.1-3.6l-3.2-1.5h5l7.4-7l0.1-0.1c0-0.1,4.5-6.4,9.9-10.2c0.1,0.1,0.4,0.3,0.5,0.4
		c0.5,0.4,1,0.8,1.6,0.8c0.3,0,0.6-0.1,0.8-0.3c4.9-3.4,12.5-6.8,14.7-7.8l1.8,2.4l0.5-0.1c0.2,0,17.1-3,21.7-3.1
		C538.3,56.6,537.8,56.8,537.3,57z M472.9,79.8c4.1-2.5,8.5-4.7,13-6.6c0,0,0,0,0,0l-6.8,6.5H472.9z M426.1,162.7
		c0-34.1,17.7-64.1,44.5-81.3l4.1,2l-5.8,4.1l2,0.3c0.7,0.1,1.6,0.5,1.8,0.8c0.1,0.2-0.1,0.6-0.7,1.2c-3.1,3.1-9.2,33.9-9.2,36.5
		c0,1.2,0.4,3.9,0.8,6.9c0.5,3.1,1.1,7.7,1,9.2c-0.1,0-0.2-0.1-0.3-0.1c-0.5-0.1-1.1-0.3-1.7-0.3c-1.2,0-2.2,0.6-3.1,1.7
		c-1.2,1.7,0.1,5.6,2.4,11.8c1.2,3.2,2.4,6.6,2.4,8.1c0,4,0,7,2.2,13c0.3,0.8,1.1,3.1,2.9,3.1c0.8,0,1.5-0.5,2-1.1
		c0.6,2.6,1.9,7.7,3.6,13.2c0.6,2,1.4,4.1,2.2,6.1c1.2,3.2,2.5,6.5,3.1,9.5c1.6,7,0.9,12.2,0.7,13.8l-26.7,9.8
		C436.9,213.5,426.1,189.3,426.1,162.7z"/>
	<path class="st0" d="M470.4,165.2l-0.3-7.8c0-0.2-0.2-5-0.2-5.8c-0.1-0.5-1.3-3.7-2.4-6.3c-0.2-0.4,0-0.9,0.4-1.1
		c0.4-0.2,0.9,0,1.1,0.4c0.7,1.6,1.7,3.9,2.2,5.5c0.3-2.1,0.4-3.9,0.4-4.7c-0.2-2.3,0.4-6.6,0.4-6.8l0-0.1l2.1-8.7
		c0-0.1,2.8-8.6,2.4-13.5c-0.4-5.1,1.8-23.6,4.2-26c1.6-1.6,5.5-3.3,8.1-4.4c0.8-0.4,1.6-0.7,1.8-0.8c1-0.6,3.3-0.3,4.4,0l4.9-6.1
		l1,4.5l11.7-4.1l5.2,1l11-3.1c0.2,0,3.9-0.6,10,0.4c1.2,0.2,1.9,0.2,2.2,0.2c-0.2-0.3-0.6-0.7-1-1l-6.3-5l18.1,9.2l2.5-1.6l0.5,0.6
		c1,1.3,9.6,12.7,10.2,14.2c0.7,1.6,1.1,6.5,0.7,8.8c0.3,0.1,0.9,0.1,1.3,0.1c1.4,0,3,0.1,4,1.2c0.6,0.6,0.8,1.5,0.7,2.5
		c-0.1,1.6,0.2,2.9,0.6,4.3c0.6,2.3,1.3,4.7-1,7.7c-2.4,3.1-0.2,12.1,1.1,17.4c0.4,1.5,0.7,2.8,0.9,3.8l0,0.1
		c0.1,0.5,0.2,1.6,0.3,2.9c0.1-1.1,0.3-1.9,0.4-2.2c0.1-0.4,0.6-0.7,1-0.5c0.4,0.1,0.7,0.6,0.5,1c-0.3,0.8-0.8,5.9-1,8
		c-0.1,0.6-0.1,1.1-0.1,1.4c-0.1,0.6-0.1,1.3-0.9,1.3c-0.4,0-0.8-0.4-0.8-0.8c0-0.5-0.6-6.7-1-10.8c-0.2-0.9-0.5-2.2-0.8-3.6
		c-1.5-6-3.7-15.1-0.9-18.8c1.8-2.4,1.3-4.1,0.7-6.3c-0.4-1.4-0.8-3-0.7-4.8c0.1-0.6,0-1-0.3-1.3c-0.5-0.6-1.8-0.6-2.8-0.6
		c-1.1,0-2.1-0.1-2.6-0.7c-0.2-0.2-0.4-0.6-0.3-1.2c0.4-2,0-6.7-0.6-8c-0.4-0.9-5.9-8.4-9.6-13.3l-2,1.3l-9.2-4.7
		c0,0.1,0,0.2-0.1,0.3c-0.5,1.2-2.4,1-4.1,0.7c-5.5-0.9-9-0.5-9.4-0.4l-11.3,3.1l-5.1-1l-13,4.6l-0.7-2.9l-3.4,4.2l-0.5-0.1
		c-1.6-0.4-3.3-0.5-3.7-0.3c-0.3,0.2-1,0.5-2,0.9c-2.3,1-6.2,2.7-7.6,4.1c-1.7,1.7-4.1,19.4-3.7,24.7c0.4,5.1-2.3,13.4-2.5,14.1
		l-2,8.6c-0.1,0.4-0.6,4.3-0.4,6.4c0.2,2.3-1.4,11.8-1.5,12.2L470.4,165.2z"/>
	<path class="st0" d="M512.7,197.1c0,0,11.4-0.9,14.2-0.9c2.9-0.1,8.3,0,7.4,0.5c-0.9,0.5-11.7,2.8-12.6,2.8
		C520.8,199.4,512.7,197.1,512.7,197.1z"/>
	<path class="st0" d="M520.4,228.1c-15.3,0-31.7-15-32.4-15.7c-0.3-0.3-0.4-0.8,0-1.2c0.3-0.3,0.8-0.4,1.2,0
		c0.2,0.2,16.7,15.2,31.4,15.2c0.5,0,1,0,1.5-0.1c11.1-0.8,23.1-6.5,34.7-16.3c0.3-0.3,0.9-0.2,1.2,0.1c0.3,0.3,0.2,0.9-0.1,1.2
		c-11.9,10.1-24.3,15.8-35.7,16.7C521.5,228.1,520.9,228.1,520.4,228.1z"/>
	<path class="st0" d="M484,248.3c-0.4,0-0.8-0.3-0.8-0.7l-2.5-23.2c0-0.5,0.3-0.9,0.7-0.9c0.5,0,0.9,0.3,0.9,0.7l2.5,23.2
		C484.8,247.8,484.5,248.2,484,248.3C484,248.3,484,248.3,484,248.3z"/>
	<path class="st0" d="M559.2,242.7C559.1,242.7,559.1,242.7,559.2,242.7c-0.5-0.1-0.9-0.5-0.8-0.9l2.5-23.2c0-0.5,0.5-0.8,0.9-0.7
		c0.5,0,0.8,0.5,0.7,0.9L560,242C559.9,242.4,559.6,242.7,559.2,242.7z"/>
	<path class="st0" d="M513,172.8c-0.1,0-0.2,0-0.3-0.1c-1.1-0.5-1.9-1.3-2.2-2.4c-1-3.3,2.3-8.3,2.5-8.5c0.3-0.4,0.8-0.5,1.1-0.2
		c0.4,0.3,0.5,0.8,0.2,1.1c-0.8,1.3-2.9,5-2.3,7.2c0.2,0.6,0.6,1.1,1.3,1.4c0.4,0.2,0.6,0.7,0.4,1.1
		C513.6,172.6,513.3,172.8,513,172.8z"/>
	<path class="st0" d="M531.6,172.8c-0.3,0-0.6-0.2-0.8-0.5c-0.2-0.4,0-0.9,0.4-1.1c0.7-0.3,1.1-0.7,1.3-1.4c0.6-2.2-1.4-5.9-2.3-7.1
		c-0.3-0.4-0.2-0.9,0.2-1.1c0.4-0.3,0.9-0.2,1.1,0.2c0.1,0.2,3.5,5.2,2.5,8.5c-0.3,1.1-1.1,1.9-2.2,2.4
		C531.9,172.7,531.8,172.8,531.6,172.8z"/>
	<path class="st0" d="M516.4,170.2c0,0-2.3-2.8-2.8-1.5C513.1,169.9,515.3,172.3,516.4,170.2z"/>
	<path class="st0" d="M527.6,170.2c0,0,2.3-2.8,2.8-1.5C530.9,169.9,528.7,172.3,527.6,170.2z"/>
	<path class="st0" d="M517.8,150.2c-0.4,0-0.7-0.3-0.8-0.7c0-0.1-1.1-6.9-2-11.7c-0.7-3.6-6.6-6.1-8.9-6.8c-4.5-0.2-16.5-0.3-20,1.9
		c-0.4,0.2-0.9,0.1-1.1-0.3c-0.2-0.4-0.1-0.9,0.3-1.1c4.7-3,20.4-2.2,21.1-2.2l0.1,0l0.1,0c0.4,0.1,9.2,2.7,10.2,8.1
		c0.9,4.9,2,11.7,2,11.8c0.1,0.4-0.2,0.9-0.7,0.9C517.9,150.2,517.8,150.2,517.8,150.2z"/>
	<path class="st0" d="M522.4,174.5c-2.7,0-4.6-1.7-4.9-2c-0.3-0.3-0.3-0.8,0-1.2c0.3-0.3,0.8-0.3,1.2,0c0.5,0.5,3.4,3,7.3,0.2
		c0.4-0.3,0.9-0.2,1.1,0.2c0.3,0.4,0.2,0.9-0.2,1.1C525.2,174.1,523.7,174.5,522.4,174.5z"/>
	<path class="st0" d="M533.4,134.2c-0.2,0-0.5-0.1-0.7-0.3c-0.3-0.4-0.2-0.9,0.2-1.2c0.2-0.1,4.8-3.6,15-3.1
		c10.1,0.5,12.9,2.2,13,2.3c0.4,0.2,0.5,0.8,0.2,1.1c-0.2,0.4-0.8,0.5-1.1,0.2c0,0-2.7-1.5-12.2-2c-9.6-0.5-13.9,2.7-13.9,2.7
		C533.7,134.1,533.5,134.2,533.4,134.2z"/>
	<path class="st0" d="M507.1,193.1c-0.3,0-0.5-0.2-0.6-0.4c-0.1-0.3,0.1-0.7,0.4-0.8c0.2-0.1,5.1-1.4,9.8-0.9c1.9,0.2,3,0.4,3.8,0.5
		c1.2,0.2,1.7,0.3,3.2,0.1c5.5-0.7,10.3-0.8,14.1-0.3c0.3,0,0.6,0.3,0.5,0.7c0,0.3-0.3,0.6-0.7,0.5c-2.5-0.3-7-0.5-13.8,0.3
		c-1.7,0.2-2.3,0.1-3.6-0.1c-0.8-0.1-1.9-0.3-3.7-0.5c-4.5-0.4-9.3,0.9-9.4,0.9C507.2,193.1,507.2,193.1,507.1,193.1z"/>
	<path class="st0" d="M504.9,141.4c0,1.9-2.2,3.4-4.8,3.4c-2.7,0-4.8-1.5-4.8-3.4c0-1.9,2.2-3.4,4.8-3.4
		C502.7,138,504.9,139.5,504.9,141.4z"/>
	<path class="st0" d="M550.9,140.6c0,1.9-2.2,3.4-4.8,3.4c-2.7,0-4.8-1.5-4.8-3.4c0-1.9,2.2-3.4,4.8-3.4
		C548.7,137.2,550.9,138.7,550.9,140.6z"/>
	<path class="st0" d="M510.2,141.7c-0.4,0-0.7-0.3-0.8-0.6c0-0.2-1-3.7-5.4-3.7c-5.2,0-12.4,2.9-13.4,4c-0.3,0.3-0.8,0.4-1.2,0.1
		c-0.3-0.3-0.4-0.8-0.1-1.2c1.4-1.7,9.3-4.6,14.6-4.6c4.6,0,6.6,3.2,7,5c0.1,0.4-0.2,0.9-0.6,1C510.4,141.7,510.3,141.7,510.2,141.7
		z"/>
	<path class="st0" d="M556.5,141.1c-0.1,0-0.2,0-0.4-0.1c-0.9-0.4-8-3.7-11.5-4c-2.8-0.3-8.2,2.6-10,3.8c-0.4,0.2-0.9,0.1-1.1-0.3
		c-0.2-0.4-0.1-0.9,0.3-1.1c0.3-0.2,7.1-4.5,11.1-4c4.2,0.5,12,4.2,12,4.2c0.4,0.2,0.6,0.7,0.4,1.1
		C557,140.9,556.8,141.1,556.5,141.1z"/>
	<path class="st0" d="M522.3,188.3c-0.5,0-0.8-0.4-0.8-0.8v-5.2c0-0.5,0.4-0.8,0.8-0.8c0.5,0,0.8,0.4,0.8,0.8v5.2
		C523.1,188,522.7,188.3,522.3,188.3z"/>
	<path class="st1" d="M480.5,207.4c-0.7-3.1-1.9-6.3-3.1-9.5c-0.8-2-1.6-4.1-2.2-6.1c-1.8-5.5-3.1-10.6-3.6-13.2
		c-0.5,0.5-1.2,1.1-2,1.1c-1.8,0-2.6-2.3-2.9-3.1c-2.2-6-2.2-8.9-2.2-13c0-1.6-1.2-4.9-2.4-8.1c-2.3-6.3-3.6-10.2-2.4-11.8
		c0.9-1.2,1.9-1.7,3.1-1.7c0.6,0,1.2,0.2,1.7,0.3c0.1,0,0.2,0.1,0.3,0.1c0.1-1.5-0.6-6.1-1-9.2c-0.4-3-0.8-5.7-0.8-6.9
		c0-2.6,6.1-33.3,9.2-36.5c0.6-0.6,0.7-1,0.7-1.2c-0.1-0.4-1.1-0.7-1.8-0.8l-2-0.3l5.8-4.1l-4.1-2c-26.7,17.2-44.5,47.2-44.5,81.3
		c0,26.7,10.9,50.8,28.4,68.3l26.7-9.8C481.4,219.6,482,214.4,480.5,207.4z"/>
	<path class="st1" d="M572.1,216.6l-6.2-1.9l0.3-14.4l0.1-0.1c0-0.1,2.5-6.6,5.3-13.3c1.2-2.8,1.8-5,2.2-6.6c0.6-2.2,1-3.5,2.2-3.5
		c0.2,0,0.4,0,0.6,0.1c0.2,0.1,0.3,0.1,0.4,0.1c0.6,0,1-0.9,1.2-2.5c0.1-0.9,0-3.2,0-5.7c-0.1-4.5-0.3-9.7,0.4-11.8
		c0.9-3.2,2.1-12,1.8-15.2c-0.2-1.7-2-2.1-3.6-2.1c-0.5,0-0.8,0-0.8,0l-1.1,0.1l0.2-1.1l3.4-20.9c-0.2-1.3-1.6-12.5-1.8-15.7
		c-0.2-2.3-8.4-14.5-13.5-21.6l-1-1.4l3.8,0.2l-14.7-9.4l6.3-0.9l-12.6-6.2l2.9-1.1l-12.9-4l2.2-0.9c0.5-0.2,1-0.4,1.4-0.6
		c-4.6,0.1-21.5,3.1-21.7,3.1l-0.5,0.1l-1.8-2.4c-2.2,1-9.8,4.4-14.7,7.8c-0.2,0.2-0.5,0.3-0.8,0.3c-0.7,0-1.2-0.4-1.6-0.8
		c-0.1-0.1-0.4-0.3-0.5-0.4c-5.5,3.9-9.9,10.2-9.9,10.2l-0.1,0.1l-7.4,7h-5l3.2,1.5l-5.1,3.6c0.6,0.3,1.1,0.7,1.4,1.4
		c0.3,0.9-0.1,1.8-1.1,2.9c-2.5,2.5-8.7,31.8-8.7,35.3c0,1.1,0.4,3.8,0.8,6.7c1.1,7.7,1.3,10,0.7,10.8c-0.2,0.2-0.5,0.3-0.8,0.3
		c-0.4,0-0.9-0.1-1.3-0.2c-0.4-0.1-0.8-0.2-1.3-0.2c-0.4,0-1,0.1-1.8,1.1c-0.8,1.1,1.2,6.6,2.6,10.3c1.3,3.5,2.5,6.9,2.5,8.7
		c0,4,0,6.7,2.1,12.4c0.6,1.5,1.1,2,1.4,2c0.5,0,1.1-0.9,1.4-1.3c0.3-0.4,0.6-0.7,1-0.7c0.4,0,0.8,0.3,0.9,0.9
		c0.1,0.6,1.5,6.9,3.9,14.4c0.6,2,1.4,4,2.2,6c1.2,3.2,2.5,6.6,3.2,9.8c1.9,8.6,0.7,14.6,0.6,14.9l-0.1,0.4l-3.6,1.3
		c-1.4,1.6-3,4.8-2.3,10.6c1,7.3,2.5,12,3,13.6h88.5c0.2-0.1,0.4-0.2,0.6-0.3C572.3,240.7,579.1,224.3,572.1,216.6z"/>
	<path class="st1" d="M565.5,81c3.3,4.6,12.5,17.9,12.8,21c0.3,3.4,1.8,15.6,1.9,15.8l0,0.1l-3.3,20.2c3,0,4.9,1.3,5.1,3.6
		c0.3,3.6-1,12.7-1.9,15.8c-0.5,1.8-0.4,7.3-0.3,11.2c0.1,2.8,0.1,5,0,6c-0.4,3.3-1.8,4-2.9,4c-0.3,0-0.6-0.1-1-0.2
		c-0.2,0.3-0.5,1.3-0.7,2.3c-0.5,1.7-1.1,3.9-2.3,6.8c-2.5,6.2-4.8,12.2-5.2,13.2l-0.3,12.9l30.7,9.6c13.3-16.6,21.2-37.5,21.2-60.4
		c0-40.2-24.7-74.7-59.7-89.3l12.5,8L565.5,81z"/>
	<path class="st0" d="M598.6,86.8c-16-16-36.1-26.3-57.9-29.9c0.3-0.4,0.3-0.7,0.3-0.8c0-0.3-0.2-0.9-1.1-1.2
		c-0.2-0.1-0.5-0.1-1-0.1c-1.5,0-4.8,0.4-8.3,0.9c-2.6-0.2-5.3-0.3-7.9-0.3c-2.4,0-4.8,0.1-7.2,0.2l-0.3-0.4l-0.6,0.3
		c0,0-0.2,0.1-0.4,0.2c-25.5,2-49.2,12.8-67.4,31.1c-20.3,20.3-31.4,47.2-31.4,75.9c0,28.7,11.2,55.6,31.4,75.9
		c20.3,20.3,47.2,31.4,75.9,31.4c28.7,0,55.6-11.2,75.9-31.4c20.3-20.3,31.4-47.2,31.4-75.9C630.1,134,618.9,107,598.6,86.8z
		 M619.4,162.7c0,22.8-8,43.8-21.2,60.4l-30.7-9.6l0.3-12.9c0.4-1,2.7-7,5.2-13.2c1.2-2.9,1.8-5.2,2.3-6.8c0.3-1,0.5-1.9,0.7-2.3
		c0.3,0.1,0.7,0.2,1,0.2c1.1,0,2.4-0.7,2.9-4c0.1-1,0.1-3.2,0-6c-0.1-4-0.3-9.4,0.3-11.2c0.9-3,2.2-12.2,1.9-15.8
		c-0.2-2.2-2.1-3.5-5.1-3.6l3.3-20.2l0-0.1c0-0.1-1.5-12.4-1.9-15.8c-0.3-3.1-9.5-16.4-12.8-21l6.7,0.4l-12.5-8
		C594.7,87.9,619.4,122.5,619.4,162.7z M537.3,57l-2.2,0.9l12.9,4l-2.9,1.1l12.6,6.2l-6.3,0.9l14.7,9.4l-3.8-0.2l1,1.4
		c5.1,7.1,13.3,19.2,13.5,21.6c0.3,3.2,1.7,14.4,1.8,15.7l-3.4,20.9l-0.2,1.1l1.1-0.1c0,0,0.3,0,0.8,0c1.5,0,3.4,0.4,3.6,2.1
		c0.3,3.2-0.9,12-1.8,15.2c-0.6,2-0.5,7.2-0.4,11.8c0.1,2.5,0.1,4.8,0,5.7c-0.2,1.6-0.7,2.5-1.2,2.5c-0.1,0-0.3,0-0.4-0.1
		c-0.2-0.1-0.4-0.1-0.6-0.1c-1.3,0-1.6,1.3-2.2,3.5c-0.4,1.6-1.1,3.8-2.2,6.6c-2.8,6.7-5.2,13.3-5.3,13.3l-0.1,0.1l-0.3,14.4
		l6.2,1.9c7.1,7.7,0.2,24.1-3.1,31c-13.7,7.5-29.5,11.8-46.2,11.8c-15.2,0-29.6-3.5-42.4-9.8l-0.3-1c0,0-2-5.1-3.2-14.2
		c-0.8-5.8,0.9-9,2.3-10.6l3.6-1.3l0.1-0.4c0.1-0.3,1.3-6.3-0.6-14.9c-0.7-3.2-2-6.5-3.2-9.8c-0.8-2-1.5-4-2.2-6
		c-2.4-7.6-3.8-13.9-3.9-14.4c0-0.6-0.5-0.9-0.9-0.9c-0.5,0-0.7,0.3-1,0.7c-0.3,0.4-1,1.3-1.4,1.3c-0.3,0-0.8-0.5-1.4-2
		c-2.1-5.7-2.1-8.4-2.1-12.4c0-1.8-1.2-5.2-2.5-8.7c-1.4-3.7-3.4-9.2-2.6-10.3c0.7-1,1.3-1.1,1.8-1.1c0.4,0,0.8,0.1,1.3,0.2
		c0.4,0.1,0.8,0.2,1.3,0.2c0.3,0,0.6-0.1,0.8-0.3c0.7-0.8,0.5-3.1-0.7-10.8c-0.4-2.9-0.8-5.6-0.8-6.7c0-3.5,6.2-32.8,8.7-35.3
		c1-1,1.4-2,1.1-2.9c-0.2-0.7-0.8-1.1-1.4-1.4l5.1-3.6l-3.2-1.5h5l7.4-7l0.1-0.1c0-0.1,4.5-6.4,9.9-10.2c0.1,0.1,0.4,0.3,0.5,0.4
		c0.5,0.4,1,0.8,1.6,0.8c0.3,0,0.6-0.1,0.8-0.3c4.9-3.4,12.5-6.8,14.7-7.8l1.8,2.4l0.5-0.1c0.2,0,17.1-3,21.7-3.1
		C538.3,56.6,537.8,56.8,537.3,57z M472.9,79.8c4.1-2.5,8.5-4.7,13-6.6c0,0,0,0,0,0l-6.8,6.5H472.9z M426.1,162.7
		c0-34.1,17.7-64.1,44.5-81.3l4.1,2l-5.8,4.1l2,0.3c0.7,0.1,1.6,0.5,1.8,0.8c0.1,0.2-0.1,0.6-0.7,1.2c-3.1,3.1-9.2,33.9-9.2,36.5
		c0,1.2,0.4,3.9,0.8,6.9c0.5,3.1,1.1,7.7,1,9.2c-0.1,0-0.2-0.1-0.3-0.1c-0.5-0.1-1.1-0.3-1.7-0.3c-1.2,0-2.2,0.6-3.1,1.7
		c-1.2,1.7,0.1,5.6,2.4,11.8c1.2,3.2,2.4,6.6,2.4,8.1c0,4,0,7,2.2,13c0.3,0.8,1.1,3.1,2.9,3.1c0.8,0,1.5-0.5,2-1.1
		c0.6,2.6,1.9,7.7,3.6,13.2c0.6,2,1.4,4.1,2.2,6.1c1.2,3.2,2.5,6.5,3.1,9.5c1.6,7,0.9,12.2,0.7,13.8l-26.7,9.8
		C436.9,213.5,426.1,189.3,426.1,162.7z"/>
	<path class="st0" d="M470.4,165.2l-0.3-7.8c0-0.2-0.2-5-0.2-5.8c-0.1-0.5-1.3-3.7-2.4-6.3c-0.2-0.4,0-0.9,0.4-1.1
		c0.4-0.2,0.9,0,1.1,0.4c0.7,1.6,1.7,3.9,2.2,5.5c0.3-2.1,0.4-3.9,0.4-4.7c-0.2-2.3,0.4-6.6,0.4-6.8l0-0.1l2.1-8.7
		c0-0.1,2.8-8.6,2.4-13.5c-0.4-5.1,1.8-23.6,4.2-26c1.6-1.6,5.5-3.3,8.1-4.4c0.8-0.4,1.6-0.7,1.8-0.8c1-0.6,3.3-0.3,4.4,0l4.9-6.1
		l1,4.5l11.7-4.1l5.2,1l11-3.1c0.2,0,3.9-0.6,10,0.4c1.2,0.2,1.9,0.2,2.2,0.2c-0.2-0.3-0.6-0.7-1-1l-6.3-5l18.1,9.2l2.5-1.6l0.5,0.6
		c1,1.3,9.6,12.7,10.2,14.2c0.7,1.6,1.1,6.5,0.7,8.8c0.3,0.1,0.9,0.1,1.3,0.1c1.4,0,3,0.1,4,1.2c0.6,0.6,0.8,1.5,0.7,2.5
		c-0.1,1.6,0.2,2.9,0.6,4.3c0.6,2.3,1.3,4.7-1,7.7c-2.4,3.1-0.2,12.1,1.1,17.4c0.4,1.5,0.7,2.8,0.9,3.8l0,0.1
		c0.1,0.5,0.2,1.6,0.3,2.9c0.1-1.1,0.3-1.9,0.4-2.2c0.1-0.4,0.6-0.7,1-0.5c0.4,0.1,0.7,0.6,0.5,1c-0.3,0.8-0.8,5.9-1,8
		c-0.1,0.6-0.1,1.1-0.1,1.4c-0.1,0.6-0.1,1.3-0.9,1.3c-0.4,0-0.8-0.4-0.8-0.8c0-0.5-0.6-6.7-1-10.8c-0.2-0.9-0.5-2.2-0.8-3.6
		c-1.5-6-3.7-15.1-0.9-18.8c1.8-2.4,1.3-4.1,0.7-6.3c-0.4-1.4-0.8-3-0.7-4.8c0.1-0.6,0-1-0.3-1.3c-0.5-0.6-1.8-0.6-2.8-0.6
		c-1.1,0-2.1-0.1-2.6-0.7c-0.2-0.2-0.4-0.6-0.3-1.2c0.4-2,0-6.7-0.6-8c-0.4-0.9-5.9-8.4-9.6-13.3l-2,1.3l-9.2-4.7
		c0,0.1,0,0.2-0.1,0.3c-0.5,1.2-2.4,1-4.1,0.7c-5.5-0.9-9-0.5-9.4-0.4l-11.3,3.1l-5.1-1l-13,4.6l-0.7-2.9l-3.4,4.2l-0.5-0.1
		c-1.6-0.4-3.3-0.5-3.7-0.3c-0.3,0.2-1,0.5-2,0.9c-2.3,1-6.2,2.7-7.6,4.1c-1.7,1.7-4.1,19.4-3.7,24.7c0.4,5.1-2.3,13.4-2.5,14.1
		l-2,8.6c-0.1,0.4-0.6,4.3-0.4,6.4c0.2,2.3-1.4,11.8-1.5,12.2L470.4,165.2z"/>
	<path class="st0" d="M512.7,197.1c0,0,11.4-0.9,14.2-0.9c2.9-0.1,8.3,0,7.4,0.5c-0.9,0.5-11.7,2.8-12.6,2.8
		C520.8,199.4,512.7,197.1,512.7,197.1z"/>
	<path class="st0" d="M520.4,228.1c-15.3,0-31.7-15-32.4-15.7c-0.3-0.3-0.4-0.8,0-1.2c0.3-0.3,0.8-0.4,1.2,0
		c0.2,0.2,16.7,15.2,31.4,15.2c0.5,0,1,0,1.5-0.1c11.1-0.8,23.1-6.5,34.7-16.3c0.3-0.3,0.9-0.2,1.2,0.1c0.3,0.3,0.2,0.9-0.1,1.2
		c-11.9,10.1-24.3,15.8-35.7,16.7C521.5,228.1,520.9,228.1,520.4,228.1z"/>
	<path class="st0" d="M484,248.3c-0.4,0-0.8-0.3-0.8-0.7l-2.5-23.2c0-0.5,0.3-0.9,0.7-0.9c0.5,0,0.9,0.3,0.9,0.7l2.5,23.2
		C484.8,247.8,484.5,248.2,484,248.3C484,248.3,484,248.3,484,248.3z"/>
	<path class="st0" d="M559.2,242.7C559.1,242.7,559.1,242.7,559.2,242.7c-0.5-0.1-0.9-0.5-0.8-0.9l2.5-23.2c0-0.5,0.5-0.8,0.9-0.7
		c0.5,0,0.8,0.5,0.7,0.9L560,242C559.9,242.4,559.6,242.7,559.2,242.7z"/>
	<path class="st0" d="M513,172.8c-0.1,0-0.2,0-0.3-0.1c-1.1-0.5-1.9-1.3-2.2-2.4c-1-3.3,2.3-8.3,2.5-8.5c0.3-0.4,0.8-0.5,1.1-0.2
		c0.4,0.3,0.5,0.8,0.2,1.1c-0.8,1.3-2.9,5-2.3,7.2c0.2,0.6,0.6,1.1,1.3,1.4c0.4,0.2,0.6,0.7,0.4,1.1
		C513.6,172.6,513.3,172.8,513,172.8z"/>
	<path class="st0" d="M531.6,172.8c-0.3,0-0.6-0.2-0.8-0.5c-0.2-0.4,0-0.9,0.4-1.1c0.7-0.3,1.1-0.7,1.3-1.4c0.6-2.2-1.4-5.9-2.3-7.1
		c-0.3-0.4-0.2-0.9,0.2-1.1c0.4-0.3,0.9-0.2,1.1,0.2c0.1,0.2,3.5,5.2,2.5,8.5c-0.3,1.1-1.1,1.9-2.2,2.4
		C531.9,172.7,531.8,172.8,531.6,172.8z"/>
	<path class="st0" d="M516.4,170.2c0,0-2.3-2.8-2.8-1.5C513.1,169.9,515.3,172.3,516.4,170.2z"/>
	<path class="st0" d="M527.6,170.2c0,0,2.3-2.8,2.8-1.5C530.9,169.9,528.7,172.3,527.6,170.2z"/>
	<path class="st0" d="M517.8,150.2c-0.4,0-0.7-0.3-0.8-0.7c0-0.1-1.1-6.9-2-11.7c-0.7-3.6-6.6-6.1-8.9-6.8c-4.5-0.2-16.5-0.3-20,1.9
		c-0.4,0.2-0.9,0.1-1.1-0.3c-0.2-0.4-0.1-0.9,0.3-1.1c4.7-3,20.4-2.2,21.1-2.2l0.1,0l0.1,0c0.4,0.1,9.2,2.7,10.2,8.1
		c0.9,4.9,2,11.7,2,11.8c0.1,0.4-0.2,0.9-0.7,0.9C517.9,150.2,517.8,150.2,517.8,150.2z"/>
	<path class="st0" d="M522.4,174.5c-2.7,0-4.6-1.7-4.9-2c-0.3-0.3-0.3-0.8,0-1.2c0.3-0.3,0.8-0.3,1.2,0c0.5,0.5,3.4,3,7.3,0.2
		c0.4-0.3,0.9-0.2,1.1,0.2c0.3,0.4,0.2,0.9-0.2,1.1C525.2,174.1,523.7,174.5,522.4,174.5z"/>
	<path class="st0" d="M533.4,134.2c-0.2,0-0.5-0.1-0.7-0.3c-0.3-0.4-0.2-0.9,0.2-1.2c0.2-0.1,4.8-3.6,15-3.1
		c10.1,0.5,12.9,2.2,13,2.3c0.4,0.2,0.5,0.8,0.2,1.1c-0.2,0.4-0.8,0.5-1.1,0.2c0,0-2.7-1.5-12.2-2c-9.6-0.5-13.9,2.7-13.9,2.7
		C533.7,134.1,533.5,134.2,533.4,134.2z"/>
	<path class="st0" d="M507.1,193.1c-0.3,0-0.5-0.2-0.6-0.4c-0.1-0.3,0.1-0.7,0.4-0.8c0.2-0.1,5.1-1.4,9.8-0.9c1.9,0.2,3,0.4,3.8,0.5
		c1.2,0.2,1.7,0.3,3.2,0.1c5.5-0.7,10.3-0.8,14.1-0.3c0.3,0,0.6,0.3,0.5,0.7c0,0.3-0.3,0.6-0.7,0.5c-2.5-0.3-7-0.5-13.8,0.3
		c-1.7,0.2-2.3,0.1-3.6-0.1c-0.8-0.1-1.9-0.3-3.7-0.5c-4.5-0.4-9.3,0.9-9.4,0.9C507.2,193.1,507.2,193.1,507.1,193.1z"/>
	<path class="st0" d="M504.9,141.4c0,1.9-2.2,3.4-4.8,3.4c-2.7,0-4.8-1.5-4.8-3.4c0-1.9,2.2-3.4,4.8-3.4
		C502.7,138,504.9,139.5,504.9,141.4z"/>
	<path class="st0" d="M550.9,140.6c0,1.9-2.2,3.4-4.8,3.4c-2.7,0-4.8-1.5-4.8-3.4c0-1.9,2.2-3.4,4.8-3.4
		C548.7,137.2,550.9,138.7,550.9,140.6z"/>
	<path class="st0" d="M510.2,141.7c-0.4,0-0.7-0.3-0.8-0.6c0-0.2-1-3.7-5.4-3.7c-5.2,0-12.4,2.9-13.4,4c-0.3,0.3-0.8,0.4-1.2,0.1
		c-0.3-0.3-0.4-0.8-0.1-1.2c1.4-1.7,9.3-4.6,14.6-4.6c4.6,0,6.6,3.2,7,5c0.1,0.4-0.2,0.9-0.6,1C510.4,141.7,510.3,141.7,510.2,141.7
		z"/>
	<path class="st0" d="M556.5,141.1c-0.1,0-0.2,0-0.4-0.1c-0.9-0.4-8-3.7-11.5-4c-2.8-0.3-8.2,2.6-10,3.8c-0.4,0.2-0.9,0.1-1.1-0.3
		c-0.2-0.4-0.1-0.9,0.3-1.1c0.3-0.2,7.1-4.5,11.1-4c4.2,0.5,12,4.2,12,4.2c0.4,0.2,0.6,0.7,0.4,1.1
		C557,140.9,556.8,141.1,556.5,141.1z"/>
	<path class="st0" d="M522.3,188.3c-0.5,0-0.8-0.4-0.8-0.8v-5.2c0-0.5,0.4-0.8,0.8-0.8c0.5,0,0.8,0.4,0.8,0.8v5.2
		C523.1,188,522.7,188.3,522.3,188.3z"/>
	<path class="st1" d="M480.5,207.4c-0.7-3.1-1.9-6.3-3.1-9.5c-0.8-2-1.6-4.1-2.2-6.1c-1.8-5.5-3.1-10.6-3.6-13.2
		c-0.5,0.5-1.2,1.1-2,1.1c-1.8,0-2.6-2.3-2.9-3.1c-2.2-6-2.2-8.9-2.2-13c0-1.6-1.2-4.9-2.4-8.1c-2.3-6.3-3.6-10.2-2.4-11.8
		c0.9-1.2,1.9-1.7,3.1-1.7c0.6,0,1.2,0.2,1.7,0.3c0.1,0,0.2,0.1,0.3,0.1c0.1-1.5-0.6-6.1-1-9.2c-0.4-3-0.8-5.7-0.8-6.9
		c0-2.6,6.1-33.3,9.2-36.5c0.6-0.6,0.7-1,0.7-1.2c-0.1-0.4-1.1-0.7-1.8-0.8l-2-0.3l5.8-4.1l-4.1-2c-26.7,17.2-44.5,47.2-44.5,81.3
		c0,26.7,10.9,50.8,28.4,68.3l26.7-9.8C481.4,219.6,482,214.4,480.5,207.4z"/>
	<path class="st1" d="M572.1,216.6l-6.2-1.9l0.3-14.4l0.1-0.1c0-0.1,2.5-6.6,5.3-13.3c1.2-2.8,1.8-5,2.2-6.6c0.6-2.2,1-3.5,2.2-3.5
		c0.2,0,0.4,0,0.6,0.1c0.2,0.1,0.3,0.1,0.4,0.1c0.6,0,1-0.9,1.2-2.5c0.1-0.9,0-3.2,0-5.7c-0.1-4.5-0.3-9.7,0.4-11.8
		c0.9-3.2,2.1-12,1.8-15.2c-0.2-1.7-2-2.1-3.6-2.1c-0.5,0-0.8,0-0.8,0l-1.1,0.1l0.2-1.1l3.4-20.9c-0.2-1.3-1.6-12.5-1.8-15.7
		c-0.2-2.3-8.4-14.5-13.5-21.6l-1-1.4l3.8,0.2l-14.7-9.4l6.3-0.9l-12.6-6.2l2.9-1.1l-12.9-4l2.2-0.9c0.5-0.2,1-0.4,1.4-0.6
		c-4.6,0.1-21.5,3.1-21.7,3.1l-0.5,0.1l-1.8-2.4c-2.2,1-9.8,4.4-14.7,7.8c-0.2,0.2-0.5,0.3-0.8,0.3c-0.7,0-1.2-0.4-1.6-0.8
		c-0.1-0.1-0.4-0.3-0.5-0.4c-5.5,3.9-9.9,10.2-9.9,10.2l-0.1,0.1l-7.4,7h-5l3.2,1.5l-5.1,3.6c0.6,0.3,1.1,0.7,1.4,1.4
		c0.3,0.9-0.1,1.8-1.1,2.9c-2.5,2.5-8.7,31.8-8.7,35.3c0,1.1,0.4,3.8,0.8,6.7c1.1,7.7,1.3,10,0.7,10.8c-0.2,0.2-0.5,0.3-0.8,0.3
		c-0.4,0-0.9-0.1-1.3-0.2c-0.4-0.1-0.8-0.2-1.3-0.2c-0.4,0-1,0.1-1.8,1.1c-0.8,1.1,1.2,6.6,2.6,10.3c1.3,3.5,2.5,6.9,2.5,8.7
		c0,4,0,6.7,2.1,12.4c0.6,1.5,1.1,2,1.4,2c0.5,0,1.1-0.9,1.4-1.3c0.3-0.4,0.6-0.7,1-0.7c0.4,0,0.8,0.3,0.9,0.9
		c0.1,0.6,1.5,6.9,3.9,14.4c0.6,2,1.4,4,2.2,6c1.2,3.2,2.5,6.6,3.2,9.8c1.9,8.6,0.7,14.6,0.6,14.9l-0.1,0.4l-3.6,1.3
		c-1.4,1.6-3,4.8-2.3,10.6c1,7.3,2.5,12,3,13.6h88.5c0.2-0.1,0.4-0.2,0.6-0.3C572.3,240.7,579.1,224.3,572.1,216.6z"/>
	<path class="st1" d="M565.5,81c3.3,4.6,12.5,17.9,12.8,21c0.3,3.4,1.8,15.6,1.9,15.8l0,0.1l-3.3,20.2c3,0,4.9,1.3,5.1,3.6
		c0.3,3.6-1,12.7-1.9,15.8c-0.5,1.8-0.4,7.3-0.3,11.2c0.1,2.8,0.1,5,0,6c-0.4,3.3-1.8,4-2.9,4c-0.3,0-0.6-0.1-1-0.2
		c-0.2,0.3-0.5,1.3-0.7,2.3c-0.5,1.7-1.1,3.9-2.3,6.8c-2.5,6.2-4.8,12.2-5.2,13.2l-0.3,12.9l30.7,9.6c13.3-16.6,21.2-37.5,21.2-60.4
		c0-40.2-24.7-74.7-59.7-89.3l12.5,8L565.5,81z"/>
</g>
<g>
	<path class="st0" d="M358.9,432.5c-30.8-30.8-69.6-50.7-111.6-57.7c0.6-0.7,0.6-1.3,0.6-1.6c0-0.6-0.3-1.7-2-2.3
		c-0.4-0.1-1-0.2-1.9-0.2c-3,0-9.2,0.8-16.1,1.8c-5.1-0.4-10.2-0.6-15.3-0.6c-4.7,0-9.3,0.2-13.9,0.5l-0.5-0.7l-1.1,0.5
		c-0.1,0-0.4,0.2-0.8,0.4c-49.1,3.8-94.8,24.8-130,60C26.9,471.6,5.4,523.6,5.4,578.9c0,55.3,21.5,107.3,60.6,146.4
		c39.1,39.1,91.1,60.6,146.4,60.6c55.3,0,107.3-21.5,146.4-60.6c39.1-39.1,60.6-91.1,60.6-146.4C419.5,523.6,398,471.6,358.9,432.5z
		 M398.9,578.9c0,44-15.3,84.5-40.9,116.4l-59.2-18.5l0.6-24.8c0.7-1.8,5.1-13.4,10-25.4c2.3-5.6,3.5-10,4.4-13.2
		c0.5-1.9,1-3.8,1.4-4.4c0.7,0.2,1.3,0.4,1.9,0.4c2.1,0,4.7-1.3,5.5-7.7c0.2-1.9,0.1-6.1,0-11.5c-0.2-7.7-0.5-18.2,0.6-21.7
		c1.8-5.9,4.3-23.5,3.6-30.4c-0.4-4.3-4-6.8-9.9-6.9l6.3-38.9l0-0.2c0-0.2-3-23.9-3.6-30.4c-0.5-5.9-18.4-31.6-24.6-40.5l12.9,0.8
		l-24.1-15.4C351.3,434.8,398.9,501.4,398.9,578.9z M240.5,375.1l-4.3,1.6l24.9,7.7l-5.6,2.1l24.3,11.9l-12.2,1.7l28.4,18.1
		l-7.4-0.4l1.9,2.7c9.8,13.7,25.6,37.1,26,41.6c0.6,6.2,3.3,27.8,3.6,30.3l-6.5,40.4l-0.3,2.1l2.1-0.3c0,0,0.6-0.1,1.5-0.1
		c3,0,6.6,0.7,6.9,4c0.6,6.1-1.7,23.1-3.5,29.2c-1.2,4-0.9,13.9-0.7,22.7c0.1,4.8,0.2,9.3,0,11c-0.4,3.1-1.3,4.9-2.4,4.9
		c-0.2,0-0.5-0.1-0.8-0.2c-0.4-0.2-0.8-0.3-1.2-0.3c-2.5,0-3.2,2.6-4.3,6.8c-0.9,3.1-2,7.4-4.3,12.8c-5.3,13-10.1,25.6-10.2,25.7
		l-0.1,0.3l-0.6,27.7l12,3.8c13.7,14.9,0.4,46.5-6.1,59.8c-26.5,14.5-56.8,22.7-89.1,22.7c-29.3,0-57.1-6.8-81.8-18.9l-0.6-1.9
		c0,0-3.9-9.8-6.3-27.5c-1.5-11.1,1.8-17.4,4.4-20.5l6.8-2.5l0.2-0.9c0.1-0.5,2.5-12.1-1.2-28.7c-1.4-6.1-3.8-12.6-6.2-18.8
		c-1.5-3.8-3-7.8-4.2-11.6c-4.7-14.6-7.3-26.7-7.5-27.8c0-1.1-0.9-1.7-1.7-1.7c-0.9,0-1.4,0.6-2,1.4c-0.6,0.7-1.9,2.5-2.8,2.5
		c-0.6,0-1.6-1-2.7-3.9c-4.1-11.1-4.1-16.2-4.1-23.9c0-3.6-2.4-10-4.9-16.8c-2.6-7.1-6.5-17.8-5-19.8c1.4-1.8,2.5-2.1,3.4-2.1
		c0.8,0,1.6,0.2,2.4,0.5c0.8,0.2,1.6,0.5,2.5,0.5c0.6,0,1.1-0.2,1.4-0.7c1.3-1.5,0.9-6.1-1.3-20.9c-0.8-5.5-1.6-10.7-1.6-12.9
		c0-6.8,12-63.3,16.8-68.1c1.9-1.9,2.6-3.8,2.1-5.5c-0.4-1.3-1.5-2.2-2.7-2.7l9.7-6.9l-6.2-2.9h9.7l14.2-13.6l0.2-0.2
		c0.1-0.1,8.6-12.3,19.1-19.8c0.3,0.2,0.7,0.5,1,0.7c0.9,0.7,1.9,1.6,3.1,1.6c0.6,0,1.1-0.2,1.6-0.5c9.5-6.5,24.2-13.2,28.3-15
		l3.4,4.5l1-0.2c0.3-0.1,32.9-5.8,41.8-6.1C242.4,374.3,241.5,374.8,240.5,375.1z M116.4,419.2c8-4.8,16.4-9.1,25.1-12.7
		c0,0,0,0.1-0.1,0.1l-13.2,12.6H116.4z M26,578.9c0-65.8,34.2-123.7,85.8-156.9l8,3.8l-11.2,7.9l3.9,0.6c1.3,0.2,3.2,0.9,3.4,1.6
		c0.1,0.3-0.2,1.1-1.3,2.3c-6.1,6.1-17.8,65.4-17.8,70.4c0,2.4,0.7,7.4,1.6,13.3c0.9,6,2.2,14.8,2,17.8c-0.2-0.1-0.4-0.1-0.6-0.2
		c-1-0.3-2-0.6-3.3-0.6c-2.3,0-4.2,1.1-5.9,3.3c-2.4,3.2,0.1,10.8,4.6,22.8c2.3,6.3,4.7,12.7,4.7,15.7c0,7.8,0,13.4,4.3,25
		c0.5,1.5,2.2,6,5.6,6c1.6,0,2.9-1,3.9-2c1.1,5,3.6,14.8,7,25.4c1.2,3.9,2.8,7.9,4.2,11.7c2.3,6.1,4.8,12.5,6.1,18.4
		c3,13.4,1.8,23.6,1.3,26.5l-51.5,19C46.9,677,26,630.4,26,578.9z"/>
	<path class="st0" d="M111.4,583.9l-0.6-15c0-0.4-0.4-9.6-0.4-11.2c-0.1-1-2.5-7.1-4.6-12.1c-0.3-0.8,0-1.7,0.8-2.1
		c0.8-0.3,1.7,0,2.1,0.8c1.3,3,3.2,7.6,4.2,10.6c0.5-4,0.9-7.5,0.7-9c-0.4-4.5,0.8-12.8,0.8-13.1l0-0.1l4-16.8
		c0.1-0.2,5.5-16.5,4.7-26c-0.8-9.9,3.4-45.6,8-50.2c3.1-3.1,10.6-6.4,15.5-8.6c1.6-0.7,3-1.3,3.5-1.6c2-1.2,6.3-0.5,8.6,0l9.4-11.7
		l1.9,8.6l22.6-7.9l10,2l21.3-5.9c0.3,0,7.6-1.2,19.2,0.8c2.4,0.4,3.6,0.4,4.2,0.3c-0.4-0.5-1.1-1.3-1.8-1.9l-12.1-9.7l34.9,17.8
		l4.8-3.1l0.9,1.2c1.9,2.5,18.5,24.5,19.7,27.4c1.4,3.2,2.1,12.6,1.4,16.9c0.6,0.1,1.7,0.1,2.4,0.2c2.6,0.1,5.9,0.2,7.7,2.3
		c1.1,1.2,1.5,2.8,1.3,4.9c-0.3,3,0.5,5.7,1.2,8.2c1.2,4.5,2.5,9.1-1.9,14.9c-4.6,6-0.3,23.3,2.2,33.7c0.7,2.9,1.3,5.4,1.7,7.3
		l0,0.1c0.1,1,0.3,3,0.6,5.5c0.3-2.1,0.5-3.6,0.7-4.3c0.3-0.8,1.2-1.3,2-1c0.8,0.3,1.3,1.2,1,2c-0.5,1.5-1.5,11.3-1.9,15.5
		c-0.1,1.1-0.2,2-0.3,2.7c-0.1,1.2-0.3,2.5-1.8,2.4c-0.8,0-1.5-0.8-1.5-1.6c0-0.9-1.2-13-2-20.9c-0.3-1.7-0.9-4.2-1.6-7
		c-2.9-11.6-7.2-29.1-1.7-36.3c3.5-4.6,2.5-7.9,1.4-12.1c-0.8-2.7-1.6-5.7-1.3-9.4c0.1-1.1-0.1-2-0.5-2.5c-1-1.1-3.5-1.2-5.5-1.2
		c-2.2-0.1-4-0.1-5-1.4c-0.3-0.4-0.7-1.2-0.5-2.3c0.8-3.8,0-12.9-1.1-15.4c-0.8-1.8-11.4-16.2-18.4-25.6l-3.9,2.5l-17.7-9
		c0,0.2-0.1,0.4-0.2,0.7c-1,2.2-4.5,1.9-7.9,1.4c-10.5-1.8-17.3-0.9-18.1-0.8l-21.8,6l-9.9-2l-25.1,8.8l-1.3-5.7l-6.5,8.2l-1-0.2
		c-3.1-0.8-6.4-1-7.2-0.6c-0.6,0.4-2,1-3.8,1.8c-4.4,2-11.9,5.2-14.6,7.9c-3.3,3.3-7.9,37.5-7.1,47.7c0.8,9.9-4.4,25.9-4.8,27.2
		l-3.9,16.6c-0.1,0.8-1.1,8.4-0.8,12.3c0.4,4.5-2.7,22.7-2.8,23.5L111.4,583.9z"/>
	<path class="st2" d="M193,645.3c0,0,21.9-1.6,27.5-1.8c5.5-0.2,16,0,14.3,0.9c-1.6,0.9-22.5,5.4-24.3,5.4
		C208.7,649.8,193,645.3,193,645.3z"/>
	<path class="st2" d="M207.9,705.2c-29.5,0-61.2-29-62.6-30.2c-0.6-0.6-0.7-1.6-0.1-2.2c0.6-0.6,1.6-0.7,2.2-0.1
		c0.3,0.3,32.2,29.4,60.5,29.4c1,0,2,0,2.9-0.1c21.3-1.6,44.5-12.5,67-31.4c0.7-0.6,1.7-0.5,2.2,0.2c0.6,0.7,0.5,1.7-0.2,2.2
		c-23,19.4-46.8,30.5-68.8,32.2C210,705.2,208.9,705.2,207.9,705.2z"/>
	<path class="st0" d="M137.7,744.1c-0.8,0-1.5-0.6-1.6-1.4l-4.8-44.8c-0.1-0.9,0.5-1.6,1.4-1.7c0.9-0.1,1.6,0.5,1.7,1.4l4.8,44.8
		c0.1,0.9-0.5,1.6-1.4,1.7C137.8,744.1,137.7,744.1,137.7,744.1z"/>
	<path class="st0" d="M282.7,733.3c-0.1,0-0.1,0-0.2,0c-0.9-0.1-1.5-0.9-1.4-1.7l4.8-44.8c0.1-0.9,0.9-1.5,1.7-1.4
		c0.9,0.1,1.5,0.9,1.4,1.7l-4.8,44.8C284.2,732.7,283.5,733.3,282.7,733.3z"/>
	<path class="st0" d="M193.6,598.4c-0.2,0-0.4,0-0.6-0.1c-2.2-0.9-3.7-2.5-4.3-4.7c-1.9-6.5,4.5-16.1,4.8-16.5
		c0.5-0.7,1.5-0.9,2.2-0.4c0.7,0.5,0.9,1.5,0.4,2.2c-1.6,2.4-5.6,9.6-4.4,13.8c0.4,1.2,1.2,2.1,2.5,2.7c0.8,0.3,1.2,1.3,0.8,2.1
		C194.8,598.1,194.3,598.4,193.6,598.4z"/>
	<path class="st0" d="M229.6,598.4c-0.6,0-1.2-0.4-1.5-1c-0.3-0.8,0-1.7,0.8-2.1c1.3-0.6,2.1-1.4,2.5-2.7c1.2-4.2-2.7-11.4-4.4-13.8
		c-0.5-0.7-0.3-1.7,0.4-2.2c0.7-0.5,1.7-0.3,2.2,0.4c0.3,0.4,6.7,10,4.8,16.5c-0.6,2.2-2.1,3.7-4.3,4.7
		C230.1,598.4,229.8,598.4,229.6,598.4z"/>
	<path class="st0" d="M200.2,593.6c0,0-4.5-5.4-5.4-3C193.9,593,198.1,597.4,200.2,593.6z"/>
	<path class="st0" d="M221.9,593.6c0,0,4.5-5.4,5.4-3C228.1,593,224,597.4,221.9,593.6z"/>
	<path class="st0" d="M202.9,554.9c-0.8,0-1.4-0.6-1.6-1.3c0-0.1-2.1-13.2-3.9-22.6c-1.3-7-12.7-11.7-17.2-13
		c-8.6-0.4-31.8-0.6-38.6,3.7c-0.7,0.5-1.7,0.3-2.2-0.5c-0.5-0.7-0.3-1.7,0.5-2.2c9.1-5.8,39.3-4.3,40.6-4.2l0.2,0l0.2,0
		c0.7,0.2,17.7,5.2,19.6,15.6c1.8,9.5,3.9,22.6,3.9,22.7c0.1,0.9-0.5,1.7-1.3,1.8C203.1,554.9,203,554.9,202.9,554.9z"/>
	<path class="st0" d="M211.7,601.9c-5.3,0-8.8-3.4-9.4-3.9c-0.6-0.6-0.6-1.6,0-2.2c0.6-0.6,1.6-0.6,2.2,0c1,1,6.5,5.9,14.1,0.4
		c0.7-0.5,1.7-0.4,2.2,0.4c0.5,0.7,0.4,1.7-0.4,2.2C217.3,601.1,214.3,601.9,211.7,601.9z"/>
	<path class="st0" d="M232.9,524c-0.5,0-0.9-0.2-1.3-0.6c-0.5-0.7-0.4-1.7,0.3-2.2c0.4-0.3,9.2-6.9,28.9-5.9c19.5,1,24.8,4.3,25,4.4
		c0.7,0.5,1,1.5,0.5,2.2c-0.5,0.7-1.5,1-2.2,0.5c0,0-5.2-3-23.5-3.9c-18.5-1-26.7,5.2-26.8,5.2C233.6,523.9,233.3,524,232.9,524z"/>
	<path class="st2" d="M182.3,637.7c-0.5,0-1-0.3-1.1-0.9c-0.2-0.6,0.2-1.3,0.8-1.5c0.4-0.1,9.9-2.7,18.9-1.8c3.6,0.4,5.7,0.7,7.3,1
		c2.3,0.4,3.3,0.6,6.2,0.2c10.7-1.3,19.8-1.5,27.1-0.6c0.7,0.1,1.1,0.7,1,1.3c-0.1,0.7-0.7,1.1-1.3,1c-4.9-0.6-13.5-0.9-26.6,0.6
		c-3.2,0.4-4.5,0.2-6.9-0.2c-1.5-0.3-3.6-0.6-7.1-1c-8.6-0.9-18,1.7-18.1,1.8C182.5,637.7,182.4,637.7,182.3,637.7z"/>
	<path class="st0" d="M178,538c0,3.6-4.2,6.6-9.4,6.6c-5.2,0-9.4-2.9-9.4-6.6c0-3.6,4.2-6.6,9.4-6.6C173.8,531.4,178,534.3,178,538z
		"/>
	<path class="st0" d="M266.8,536.4c0,3.6-4.2,6.6-9.4,6.6c-5.2,0-9.4-2.9-9.4-6.6c0-3.6,4.2-6.6,9.4-6.6
		C262.6,529.8,266.8,532.7,266.8,536.4z"/>
	<path class="st0" d="M188.4,538.5c-0.7,0-1.4-0.5-1.5-1.2c-0.1-0.3-1.9-7.1-10.4-7.1c-10.1,0-24,5.6-25.9,7.8
		c-0.6,0.7-1.6,0.7-2.2,0.2c-0.7-0.6-0.7-1.6-0.2-2.2c2.7-3.2,18-8.9,28.3-8.9c8.9,0,12.7,6.3,13.5,9.6c0.2,0.9-0.3,1.7-1.2,1.9
		C188.6,538.5,188.5,538.5,188.4,538.5z"/>
	<path class="st0" d="M277.5,537.4c-0.2,0-0.5-0.1-0.7-0.2c-1.7-0.9-15.4-7.1-22.1-7.8c-5.4-0.6-15.7,5.1-19.3,7.3
		c-0.7,0.5-1.7,0.3-2.2-0.5c-0.5-0.7-0.3-1.7,0.5-2.2c0.6-0.4,13.7-8.6,21.3-7.8c8,0.9,23.1,8,23.2,8.1c0.8,0.4,1.1,1.3,0.7,2.1
		C278.6,537,278.1,537.4,277.5,537.4z"/>
	<path class="st2" d="M211.5,628.5c-0.9,0-1.6-0.7-1.6-1.6v-9.9c0-0.9,0.7-1.6,1.6-1.6s1.6,0.7,1.6,1.6v9.9
		C213.1,627.8,212.4,628.5,211.5,628.5z"/>
	<path class="st1" d="M130.9,665.2c-1.3-5.9-3.7-12.2-6.1-18.4c-1.5-3.9-3-7.9-4.2-11.7c-3.4-10.6-5.9-20.5-7-25.4
		c-1,1.1-2.3,2-3.9,2c-3.4,0-5.1-4.5-5.6-6c-4.3-11.6-4.3-17.2-4.3-25c0-3-2.4-9.5-4.7-15.7c-4.4-12.1-7-19.6-4.6-22.8
		c1.7-2.3,3.6-3.3,5.9-3.3c1.2,0,2.3,0.3,3.3,0.6c0.2,0.1,0.4,0.1,0.6,0.2c0.2-3-1.1-11.7-2-17.8c-0.9-5.9-1.6-11-1.6-13.3
		c0-5,11.7-64.3,17.8-70.4c1.1-1.1,1.4-1.9,1.3-2.3c-0.2-0.7-2.1-1.4-3.4-1.6l-3.9-0.6l11.2-7.9l-8-3.8
		C60.2,455.3,26,513.2,26,578.9c0,51.4,20.9,98.1,54.7,131.8l51.5-19C132.7,688.9,133.9,678.7,130.9,665.2z"/>
	<path class="st1" d="M307.6,682.9l-12-3.8l0.6-27.7l0.1-0.3c0-0.1,4.8-12.7,10.2-25.7c2.2-5.4,3.4-9.7,4.3-12.8
		c1.2-4.2,1.9-6.8,4.3-6.8c0.4,0,0.8,0.1,1.2,0.3c0.3,0.1,0.6,0.2,0.8,0.2c1.1,0,2-1.8,2.4-4.9c0.2-1.7,0.1-6.2,0-11
		c-0.2-8.8-0.5-18.7,0.7-22.7c1.8-6.1,4.1-23.1,3.5-29.2c-0.3-3.3-3.9-4-6.9-4c-0.9,0-1.5,0.1-1.5,0.1l-2.1,0.3l0.3-2.1l6.5-40.4
		c-0.3-2.5-3-24.1-3.6-30.3c-0.4-4.5-16.1-27.9-26-41.6l-1.9-2.7l7.4,0.4l-28.4-18.1l12.2-1.7l-24.3-11.9l5.6-2.1l-24.9-7.7l4.3-1.6
		c0.9-0.4,1.9-0.8,2.7-1.2c-8.9,0.3-41.5,6-41.8,6.1l-1,0.2l-3.4-4.5c-4.2,1.9-18.8,8.5-28.3,15c-0.5,0.3-1,0.5-1.6,0.5
		c-1.3,0-2.3-0.8-3.1-1.6c-0.3-0.2-0.7-0.6-1-0.7c-10.5,7.5-19,19.6-19.1,19.8l-0.2,0.2l-14.2,13.6h-9.7l6.2,2.9l-9.7,6.9
		c1.1,0.6,2.2,1.4,2.7,2.7c0.6,1.7-0.1,3.6-2.1,5.5c-4.8,4.8-16.8,61.4-16.8,68.1c0,2.1,0.8,7.3,1.6,12.9
		c2.2,14.8,2.6,19.3,1.3,20.9c-0.4,0.4-0.9,0.7-1.4,0.7c-0.8,0-1.7-0.2-2.5-0.5c-0.8-0.2-1.6-0.5-2.4-0.5c-0.9,0-2,0.2-3.4,2.1
		c-1.6,2.1,2.4,12.8,5,19.8c2.5,6.8,4.9,13.3,4.9,16.8c0,7.7,0,12.8,4.1,23.9c1.1,2.9,2.1,3.9,2.7,3.9c0.9,0,2.2-1.8,2.8-2.5
		c0.6-0.8,1.1-1.4,2-1.4c0.8,0,1.6,0.6,1.7,1.7c0.1,1.1,2.8,13.3,7.5,27.8c1.2,3.8,2.7,7.7,4.2,11.6c2.4,6.2,4.8,12.7,6.2,18.8
		c3.7,16.6,1.3,28.2,1.2,28.7l-0.2,0.9l-6.8,2.5c-2.6,3.1-5.9,9.3-4.4,20.5c1.9,14.1,4.8,23.2,5.8,26.3h170.6
		c0.4-0.2,0.8-0.4,1.2-0.7C308,729.5,321.2,697.8,307.6,682.9z"/>
	<path class="st1" d="M295,421.4c6.3,8.9,24.1,34.5,24.6,40.5c0.6,6.5,3.5,30.1,3.6,30.4l0,0.2l-6.3,38.9c5.9,0.1,9.5,2.6,9.9,6.9
		c0.6,7-1.9,24.6-3.6,30.4c-1,3.5-0.8,14-0.6,21.7c0.1,5.3,0.3,9.6,0,11.5c-0.8,6.3-3.4,7.7-5.5,7.7c-0.6,0-1.3-0.1-1.9-0.4
		c-0.4,0.6-0.9,2.6-1.4,4.4c-0.9,3.2-2.1,7.6-4.4,13.2c-4.9,11.9-9.3,23.5-10,25.4l-0.6,24.8l59.2,18.5
		c25.6-31.9,40.9-72.4,40.9-116.4c0-77.5-47.6-144.2-115.1-172.2l24.1,15.4L295,421.4z"/>
	<path class="st3" d="M358.9,432.5c-30.8-30.8-69.6-50.7-111.6-57.7c0.6-0.7,0.6-1.3,0.6-1.6c0-0.6-0.3-1.7-2-2.3
		c-0.4-0.1-1-0.2-1.9-0.2c-3,0-9.2,0.8-16.1,1.8c-5.1-0.4-10.2-0.6-15.3-0.6c-4.7,0-9.3,0.2-13.9,0.5l-0.5-0.7l-1.1,0.5
		c-0.1,0-0.4,0.2-0.8,0.4c-49.1,3.8-94.8,24.8-130,60C26.9,471.6,5.4,523.6,5.4,578.9c0,55.3,21.5,107.3,60.6,146.4
		c39.1,39.1,91.1,60.6,146.4,60.6c55.3,0,107.3-21.5,146.4-60.6c39.1-39.1,60.6-91.1,60.6-146.4C419.5,523.6,398,471.6,358.9,432.5z
		 M398.9,578.9c0,44-15.3,84.5-40.9,116.4l-59.2-18.5l0.6-24.8c0.7-1.8,5.1-13.4,10-25.4c2.3-5.6,3.5-10,4.4-13.2
		c0.5-1.9,1-3.8,1.4-4.4c0.7,0.2,1.3,0.4,1.9,0.4c2.1,0,4.7-1.3,5.5-7.7c0.2-1.9,0.1-6.1,0-11.5c-0.2-7.7-0.5-18.2,0.6-21.7
		c1.8-5.9,4.3-23.5,3.6-30.4c-0.4-4.3-4-6.8-9.9-6.9l6.3-38.9l0-0.2c0-0.2-3-23.9-3.6-30.4c-0.5-5.9-18.4-31.6-24.6-40.5l12.9,0.8
		l-24.1-15.4C351.3,434.8,398.9,501.4,398.9,578.9z M240.5,375.1l-4.3,1.6l24.9,7.7l-5.6,2.1l24.3,11.9l-12.2,1.7l28.4,18.1
		l-7.4-0.4l1.9,2.7c9.8,13.7,25.6,37.1,26,41.6c0.6,6.2,3.3,27.8,3.6,30.3l-6.5,40.4l-0.3,2.1l2.1-0.3c0,0,0.6-0.1,1.5-0.1
		c3,0,6.6,0.7,6.9,4c0.6,6.1-1.7,23.1-3.5,29.2c-1.2,4-0.9,13.9-0.7,22.7c0.1,4.8,0.2,9.3,0,11c-0.4,3.1-1.3,4.9-2.4,4.9
		c-0.2,0-0.5-0.1-0.8-0.2c-0.4-0.2-0.8-0.3-1.2-0.3c-2.5,0-3.2,2.6-4.3,6.8c-0.9,3.1-2,7.4-4.3,12.8c-5.3,13-10.1,25.6-10.2,25.7
		l-0.1,0.3l-0.6,27.7l12,3.8c13.7,14.9,0.4,46.5-6.1,59.8c-26.5,14.5-56.8,22.7-89.1,22.7c-29.3,0-57.1-6.8-81.8-18.9l-0.6-1.9
		c0,0-3.9-9.8-6.3-27.5c-1.5-11.1,1.8-17.4,4.4-20.5l6.8-2.5l0.2-0.9c0.1-0.5,2.5-12.1-1.2-28.7c-1.4-6.1-3.8-12.6-6.2-18.8
		c-1.5-3.8-3-7.8-4.2-11.6c-4.7-14.6-7.3-26.7-7.5-27.8c0-1.1-0.9-1.7-1.7-1.7c-0.9,0-1.4,0.6-2,1.4c-0.6,0.7-1.9,2.5-2.8,2.5
		c-0.6,0-1.6-1-2.7-3.9c-4.1-11.1-4.1-16.2-4.1-23.9c0-3.6-2.4-10-4.9-16.8c-2.6-7.1-6.5-17.8-5-19.8c1.4-1.8,2.5-2.1,3.4-2.1
		c0.8,0,1.6,0.2,2.4,0.5c0.8,0.2,1.6,0.5,2.5,0.5c0.6,0,1.1-0.2,1.4-0.7c1.3-1.5,0.9-6.1-1.3-20.9c-0.8-5.5-1.6-10.7-1.6-12.9
		c0-6.8,12-63.3,16.8-68.1c1.9-1.9,2.6-3.8,2.1-5.5c-0.4-1.3-1.5-2.2-2.7-2.7l9.7-6.9l-6.2-2.9h9.7l14.2-13.6l0.2-0.2
		c0.1-0.1,8.6-12.3,19.1-19.8c0.3,0.2,0.7,0.5,1,0.7c0.9,0.7,1.9,1.6,3.1,1.6c0.6,0,1.1-0.2,1.6-0.5c9.5-6.5,24.2-13.2,28.3-15
		l3.4,4.5l1-0.2c0.3-0.1,32.9-5.8,41.8-6.1C242.4,374.3,241.5,374.8,240.5,375.1z M116.4,419.2c8-4.8,16.4-9.1,25.1-12.7
		c0,0,0,0.1-0.1,0.1l-13.2,12.6H116.4z M26,578.9c0-65.8,34.2-123.7,85.8-156.9l8,3.8l-11.2,7.9l3.9,0.6c1.3,0.2,3.2,0.9,3.4,1.6
		c0.1,0.3-0.2,1.1-1.3,2.3c-6.1,6.1-17.8,65.4-17.8,70.4c0,2.4,0.7,7.4,1.6,13.3c0.9,6,2.2,14.8,2,17.8c-0.2-0.1-0.4-0.1-0.6-0.2
		c-1-0.3-2-0.6-3.3-0.6c-2.3,0-4.2,1.1-5.9,3.3c-2.4,3.2,0.1,10.8,4.6,22.8c2.3,6.3,4.7,12.7,4.7,15.7c0,7.8,0,13.4,4.3,25
		c0.5,1.5,2.2,6,5.6,6c1.6,0,2.9-1,3.9-2c1.1,5,3.6,14.8,7,25.4c1.2,3.9,2.8,7.9,4.2,11.7c2.3,6.1,4.8,12.5,6.1,18.4
		c3,13.4,1.8,23.6,1.3,26.5l-51.5,19C46.9,677,26,630.4,26,578.9z"/>
	<path class="st2" d="M111.4,583.9l-0.6-15c0-0.4-0.4-9.6-0.4-11.2c-0.1-1-2.5-7.1-4.6-12.1c-0.3-0.8,0-1.7,0.8-2.1
		c0.8-0.3,1.7,0,2.1,0.8c1.3,3,3.2,7.6,4.2,10.6c0.5-4,0.9-7.5,0.7-9c-0.4-4.5,0.8-12.8,0.8-13.1l0-0.1l4-16.8
		c0.1-0.2,5.5-16.5,4.7-26c-0.8-9.9,3.4-45.6,8-50.2c3.1-3.1,10.6-6.4,15.5-8.6c1.6-0.7,3-1.3,3.5-1.6c2-1.2,6.3-0.5,8.6,0l9.4-11.7
		l1.9,8.6l22.6-7.9l10,2l21.3-5.9c0.3,0,7.6-1.2,19.2,0.8c2.4,0.4,3.6,0.4,4.2,0.3c-0.4-0.5-1.1-1.3-1.8-1.9l-12.1-9.7l34.9,17.8
		l4.8-3.1l0.9,1.2c1.9,2.5,18.5,24.5,19.7,27.4c1.4,3.2,2.1,12.6,1.4,16.9c0.6,0.1,1.7,0.1,2.4,0.2c2.6,0.1,5.9,0.2,7.7,2.3
		c1.1,1.2,1.5,2.8,1.3,4.9c-0.3,3,0.5,5.7,1.2,8.2c1.2,4.5,2.5,9.1-1.9,14.9c-4.6,6-0.3,23.3,2.2,33.7c0.7,2.9,1.3,5.4,1.7,7.3
		l0,0.1c0.1,1,0.3,3,0.6,5.5c0.3-2.1,0.5-3.6,0.7-4.3c0.3-0.8,1.2-1.3,2-1c0.8,0.3,1.3,1.2,1,2c-0.5,1.5-1.5,11.3-1.9,15.5
		c-0.1,1.1-0.2,2-0.3,2.7c-0.1,1.2-0.3,2.5-1.8,2.4c-0.8,0-1.5-0.8-1.5-1.6c0-0.9-1.2-13-2-20.9c-0.3-1.7-0.9-4.2-1.6-7
		c-2.9-11.6-7.2-29.1-1.7-36.3c3.5-4.6,2.5-7.9,1.4-12.1c-0.8-2.7-1.6-5.7-1.3-9.4c0.1-1.1-0.1-2-0.5-2.5c-1-1.1-3.5-1.2-5.5-1.2
		c-2.2-0.1-4-0.1-5-1.4c-0.3-0.4-0.7-1.2-0.5-2.3c0.8-3.8,0-12.9-1.1-15.4c-0.8-1.8-11.4-16.2-18.4-25.6l-3.9,2.5l-17.7-9
		c0,0.2-0.1,0.4-0.2,0.7c-1,2.2-4.5,1.9-7.9,1.4c-10.5-1.8-17.3-0.9-18.1-0.8l-21.8,6l-9.9-2l-25.1,8.8l-1.3-5.7l-6.5,8.2l-1-0.2
		c-3.1-0.8-6.4-1-7.2-0.6c-0.6,0.4-2,1-3.8,1.8c-4.4,2-11.9,5.2-14.6,7.9c-3.3,3.3-7.9,37.5-7.1,47.7c0.8,9.9-4.4,25.9-4.8,27.2
		l-3.9,16.6c-0.1,0.8-1.1,8.4-0.8,12.3c0.4,4.5-2.7,22.7-2.8,23.5L111.4,583.9z"/>
	<path class="st2" d="M193,645.3c0,0,21.9-1.6,27.5-1.8c5.5-0.2,16,0,14.3,0.9c-1.6,0.9-22.5,5.4-24.3,5.4
		C208.7,649.8,193,645.3,193,645.3z"/>
	<path class="st2" d="M207.9,705.2c-29.5,0-61.2-29-62.6-30.2c-0.6-0.6-0.7-1.6-0.1-2.2c0.6-0.6,1.6-0.7,2.2-0.1
		c0.3,0.3,32.2,29.4,60.5,29.4c1,0,2,0,2.9-0.1c21.3-1.6,44.5-12.5,67-31.4c0.7-0.6,1.7-0.5,2.2,0.2c0.6,0.7,0.5,1.7-0.2,2.2
		c-23,19.4-46.8,30.5-68.8,32.2C210,705.2,208.9,705.2,207.9,705.2z"/>
	<path class="st2" d="M137.7,744.1c-0.8,0-1.5-0.6-1.6-1.4l-4.8-44.8c-0.1-0.9,0.5-1.6,1.4-1.7c0.9-0.1,1.6,0.5,1.7,1.4l4.8,44.8
		c0.1,0.9-0.5,1.6-1.4,1.7C137.8,744.1,137.7,744.1,137.7,744.1z"/>
	<path class="st2" d="M282.7,733.3c-0.1,0-0.1,0-0.2,0c-0.9-0.1-1.5-0.9-1.4-1.7l4.8-44.8c0.1-0.9,0.9-1.5,1.7-1.4
		c0.9,0.1,1.5,0.9,1.4,1.7l-4.8,44.8C284.2,732.7,283.5,733.3,282.7,733.3z"/>
	<path class="st2" d="M193.6,598.4c-0.2,0-0.4,0-0.6-0.1c-2.2-0.9-3.7-2.5-4.3-4.7c-1.9-6.5,4.5-16.1,4.8-16.5
		c0.5-0.7,1.5-0.9,2.2-0.4c0.7,0.5,0.9,1.5,0.4,2.2c-1.6,2.4-5.6,9.6-4.4,13.8c0.4,1.2,1.2,2.1,2.5,2.7c0.8,0.3,1.2,1.3,0.8,2.1
		C194.8,598.1,194.3,598.4,193.6,598.4z"/>
	<path class="st2" d="M229.6,598.4c-0.6,0-1.2-0.4-1.5-1c-0.3-0.8,0-1.7,0.8-2.1c1.3-0.6,2.1-1.4,2.5-2.7c1.2-4.2-2.7-11.4-4.4-13.8
		c-0.5-0.7-0.3-1.7,0.4-2.2c0.7-0.5,1.7-0.3,2.2,0.4c0.3,0.4,6.7,10,4.8,16.5c-0.6,2.2-2.1,3.7-4.3,4.7
		C230.1,598.4,229.8,598.4,229.6,598.4z"/>
	<path class="st2" d="M200.2,593.6c0,0-4.5-5.4-5.4-3C193.9,593,198.1,597.4,200.2,593.6z"/>
	<path class="st2" d="M221.9,593.6c0,0,4.5-5.4,5.4-3C228.1,593,224,597.4,221.9,593.6z"/>
	<path class="st2" d="M202.9,554.9c-0.8,0-1.4-0.6-1.6-1.3c0-0.1-2.1-13.2-3.9-22.6c-1.3-7-12.7-11.7-17.2-13
		c-8.6-0.4-31.8-0.6-38.6,3.7c-0.7,0.5-1.7,0.3-2.2-0.5c-0.5-0.7-0.3-1.7,0.5-2.2c9.1-5.8,39.3-4.3,40.6-4.2l0.2,0l0.2,0
		c0.7,0.2,17.7,5.2,19.6,15.6c1.8,9.5,3.9,22.6,3.9,22.7c0.1,0.9-0.5,1.7-1.3,1.8C203.1,554.9,203,554.9,202.9,554.9z"/>
	<path class="st2" d="M211.7,601.9c-5.3,0-8.8-3.4-9.4-3.9c-0.6-0.6-0.6-1.6,0-2.2c0.6-0.6,1.6-0.6,2.2,0c1,1,6.5,5.9,14.1,0.4
		c0.7-0.5,1.7-0.4,2.2,0.4c0.5,0.7,0.4,1.7-0.4,2.2C217.3,601.1,214.3,601.9,211.7,601.9z"/>
	<path class="st2" d="M232.9,524c-0.5,0-0.9-0.2-1.3-0.6c-0.5-0.7-0.4-1.7,0.3-2.2c0.4-0.3,9.2-6.9,28.9-5.9c19.5,1,24.8,4.3,25,4.4
		c0.7,0.5,1,1.5,0.5,2.2c-0.5,0.7-1.5,1-2.2,0.5c0,0-5.2-3-23.5-3.9c-18.5-1-26.7,5.2-26.8,5.2C233.6,523.9,233.3,524,232.9,524z"/>
	<path class="st2" d="M182.3,637.7c-0.5,0-1-0.3-1.1-0.9c-0.2-0.6,0.2-1.3,0.8-1.5c0.4-0.1,9.9-2.7,18.9-1.8c3.6,0.4,5.7,0.7,7.3,1
		c2.3,0.4,3.3,0.6,6.2,0.2c10.7-1.3,19.8-1.5,27.1-0.6c0.7,0.1,1.1,0.7,1,1.3c-0.1,0.7-0.7,1.1-1.3,1c-4.9-0.6-13.5-0.9-26.6,0.6
		c-3.2,0.4-4.5,0.2-6.9-0.2c-1.5-0.3-3.6-0.6-7.1-1c-8.6-0.9-18,1.7-18.1,1.8C182.5,637.7,182.4,637.7,182.3,637.7z"/>
	<path class="st2" d="M178,538c0,3.6-4.2,6.6-9.4,6.6c-5.2,0-9.4-2.9-9.4-6.6c0-3.6,4.2-6.6,9.4-6.6C173.8,531.4,178,534.3,178,538z
		"/>
	<path class="st2" d="M266.8,536.4c0,3.6-4.2,6.6-9.4,6.6c-5.2,0-9.4-2.9-9.4-6.6c0-3.6,4.2-6.6,9.4-6.6
		C262.6,529.8,266.8,532.7,266.8,536.4z"/>
	<path class="st2" d="M188.4,538.5c-0.7,0-1.4-0.5-1.5-1.2c-0.1-0.3-1.9-7.1-10.4-7.1c-10.1,0-24,5.6-25.9,7.8
		c-0.6,0.7-1.6,0.7-2.2,0.2c-0.7-0.6-0.7-1.6-0.2-2.2c2.7-3.2,18-8.9,28.3-8.9c8.9,0,12.7,6.3,13.5,9.6c0.2,0.9-0.3,1.7-1.2,1.9
		C188.6,538.5,188.5,538.5,188.4,538.5z"/>
	<path class="st2" d="M277.5,537.4c-0.2,0-0.5-0.1-0.7-0.2c-1.7-0.9-15.4-7.1-22.1-7.8c-5.4-0.6-15.7,5.1-19.3,7.3
		c-0.7,0.5-1.7,0.3-2.2-0.5c-0.5-0.7-0.3-1.7,0.5-2.2c0.6-0.4,13.7-8.6,21.3-7.8c8,0.9,23.1,8,23.2,8.1c0.8,0.4,1.1,1.3,0.7,2.1
		C278.6,537,278.1,537.4,277.5,537.4z"/>
	<path class="st2" d="M211.5,628.5c-0.9,0-1.6-0.7-1.6-1.6v-9.9c0-0.9,0.7-1.6,1.6-1.6s1.6,0.7,1.6,1.6v9.9
		C213.1,627.8,212.4,628.5,211.5,628.5z"/>
	<path class="st1" d="M130.9,665.2c-1.3-5.9-3.7-12.2-6.1-18.4c-1.5-3.9-3-7.9-4.2-11.7c-3.4-10.6-5.9-20.5-7-25.4
		c-1,1.1-2.3,2-3.9,2c-3.4,0-5.1-4.5-5.6-6c-4.3-11.6-4.3-17.2-4.3-25c0-3-2.4-9.5-4.7-15.7c-4.4-12.1-7-19.6-4.6-22.8
		c1.7-2.3,3.6-3.3,5.9-3.3c1.2,0,2.3,0.3,3.3,0.6c0.2,0.1,0.4,0.1,0.6,0.2c0.2-3-1.1-11.7-2-17.8c-0.9-5.9-1.6-11-1.6-13.3
		c0-5,11.7-64.3,17.8-70.4c1.1-1.1,1.4-1.9,1.3-2.3c-0.2-0.7-2.1-1.4-3.4-1.6l-3.9-0.6l11.2-7.9l-8-3.8
		C60.2,455.3,26,513.2,26,578.9c0,51.4,20.9,98.1,54.7,131.8l51.5-19C132.7,688.9,133.9,678.7,130.9,665.2z"/>
	<path class="st1" d="M307.6,682.9l-12-3.8l0.6-27.7l0.1-0.3c0-0.1,4.8-12.7,10.2-25.7c2.2-5.4,3.4-9.7,4.3-12.8
		c1.2-4.2,1.9-6.8,4.3-6.8c0.4,0,0.8,0.1,1.2,0.3c0.3,0.1,0.6,0.2,0.8,0.2c1.1,0,2-1.8,2.4-4.9c0.2-1.7,0.1-6.2,0-11
		c-0.2-8.8-0.5-18.7,0.7-22.7c1.8-6.1,4.1-23.1,3.5-29.2c-0.3-3.3-3.9-4-6.9-4c-0.9,0-1.5,0.1-1.5,0.1l-2.1,0.3l0.3-2.1l6.5-40.4
		c-0.3-2.5-3-24.1-3.6-30.3c-0.4-4.5-16.1-27.9-26-41.6l-1.9-2.7l7.4,0.4l-28.4-18.1l12.2-1.7l-24.3-11.9l5.6-2.1l-24.9-7.7l4.3-1.6
		c0.9-0.4,1.9-0.8,2.7-1.2c-8.9,0.3-41.5,6-41.8,6.1l-1,0.2l-3.4-4.5c-4.2,1.9-18.8,8.5-28.3,15c-0.5,0.3-1,0.5-1.6,0.5
		c-1.3,0-2.3-0.8-3.1-1.6c-0.3-0.2-0.7-0.6-1-0.7c-10.5,7.5-19,19.6-19.1,19.8l-0.2,0.2l-14.2,13.6h-9.7l6.2,2.9l-9.7,6.9
		c1.1,0.6,2.2,1.4,2.7,2.7c0.6,1.7-0.1,3.6-2.1,5.5c-4.8,4.8-16.8,61.4-16.8,68.1c0,2.1,0.8,7.3,1.6,12.9
		c2.2,14.8,2.6,19.3,1.3,20.9c-0.4,0.4-0.9,0.7-1.4,0.7c-0.8,0-1.7-0.2-2.5-0.5c-0.8-0.2-1.6-0.5-2.4-0.5c-0.9,0-2,0.2-3.4,2.1
		c-1.6,2.1,2.4,12.8,5,19.8c2.5,6.8,4.9,13.3,4.9,16.8c0,7.7,0,12.8,4.1,23.9c1.1,2.9,2.1,3.9,2.7,3.9c0.9,0,2.2-1.8,2.8-2.5
		c0.6-0.8,1.1-1.4,2-1.4c0.8,0,1.6,0.6,1.7,1.7c0.1,1.1,2.8,13.3,7.5,27.8c1.2,3.8,2.7,7.7,4.2,11.6c2.4,6.2,4.8,12.7,6.2,18.8
		c3.7,16.6,1.3,28.2,1.2,28.7l-0.2,0.9l-6.8,2.5c-2.6,3.1-5.9,9.3-4.4,20.5c1.9,14.1,4.8,23.2,5.8,26.3h170.6
		c0.4-0.2,0.8-0.4,1.2-0.7C308,729.5,321.2,697.8,307.6,682.9z"/>
	<path class="st1" d="M295,421.4c6.3,8.9,24.1,34.5,24.6,40.5c0.6,6.5,3.5,30.1,3.6,30.4l0,0.2l-6.3,38.9c5.9,0.1,9.5,2.6,9.9,6.9
		c0.6,7-1.9,24.6-3.6,30.4c-1,3.5-0.8,14-0.6,21.7c0.1,5.3,0.3,9.6,0,11.5c-0.8,6.3-3.4,7.7-5.5,7.7c-0.6,0-1.3-0.1-1.9-0.4
		c-0.4,0.6-0.9,2.6-1.4,4.4c-0.9,3.2-2.1,7.6-4.4,13.2c-4.9,11.9-9.3,23.5-10,25.4l-0.6,24.8l59.2,18.5
		c25.6-31.9,40.9-72.4,40.9-116.4c0-77.5-47.6-144.2-115.1-172.2l24.1,15.4L295,421.4z"/>
</g>
<g>
	<path class="st4" d="M100.4,125.6h9.6V177c0,6.9-2.1,12.4-6.3,16.3c-4.2,3.9-9.7,5.9-16.7,5.9c-7.2,0-12.8-1.8-16.8-5.5
		c-4-3.7-6-8.8-6-15.5h9.6c0,4.2,1.1,7.4,3.4,9.7c2.3,2.3,5.6,3.5,9.9,3.5c4,0,7.1-1.2,9.6-3.7c2.4-2.5,3.7-6,3.7-10.5V125.6z"/>
	<path class="st4" d="M165.2,179.1h-30.4l-6.8,19h-9.9l27.7-72.5h8.4l27.7,72.5h-9.8L165.2,179.1z M137.7,171.3h24.7L150,137.4
		L137.7,171.3z"/>
	<path class="st4" d="M213.1,165.8c-8.2-2.4-14.2-5.3-17.9-8.7c-3.7-3.4-5.6-7.7-5.6-12.7c0-5.7,2.3-10.4,6.8-14.2
		s10.5-5.6,17.8-5.6c5,0,9.4,1,13.3,2.9c3.9,1.9,6.9,4.6,9.1,8c2.1,3.4,3.2,7.1,3.2,11.1h-9.6c0-4.4-1.4-7.9-4.2-10.4
		c-2.8-2.5-6.7-3.8-11.8-3.8c-4.7,0-8.4,1-11,3.1c-2.6,2.1-4,5-4,8.7c0,3,1.3,5.5,3.8,7.5c2.5,2,6.8,3.9,12.8,5.6
		c6,1.7,10.7,3.6,14.1,5.6c3.4,2,5.9,4.4,7.6,7.1c1.6,2.7,2.5,5.9,2.5,9.6c0,5.9-2.3,10.6-6.9,14.1c-4.6,3.5-10.7,5.3-18.4,5.3
		c-5,0-9.6-1-13.9-2.9c-4.3-1.9-7.6-4.5-10-7.8c-2.3-3.3-3.5-7.1-3.5-11.3h9.6c0,4.4,1.6,7.8,4.9,10.4c3.2,2.5,7.6,3.8,13,3.8
		c5,0,8.9-1,11.6-3.1c2.7-2.1,4-4.9,4-8.4s-1.2-6.3-3.7-8.2C224.1,169.6,219.6,167.7,213.1,165.8z"/>
	<path class="st4" d="M308,164.2c0,7.1-1.2,13.3-3.6,18.6s-5.8,9.3-10.2,12.1s-9.5,4.2-15.3,4.2c-5.7,0-10.8-1.4-15.2-4.2
		c-4.4-2.8-7.8-6.8-10.3-12c-2.4-5.2-3.7-11.2-3.8-18.1v-5.2c0-7,1.2-13.1,3.6-18.5c2.4-5.3,5.9-9.4,10.3-12.3
		c4.4-2.8,9.5-4.3,15.2-4.3c5.8,0,10.9,1.4,15.4,4.2c4.4,2.8,7.8,6.9,10.2,12.2c2.4,5.3,3.6,11.5,3.6,18.6V164.2z M298.5,159.5
		c0-8.6-1.7-15.2-5.2-19.8c-3.5-4.6-8.3-6.9-14.5-6.9c-6,0-10.8,2.3-14.3,6.9c-3.5,4.6-5.3,11-5.4,19.1v5.3c0,8.3,1.8,14.9,5.3,19.6
		c3.5,4.8,8.3,7.1,14.5,7.1c6.2,0,11-2.2,14.3-6.7c3.4-4.5,5.1-10.9,5.2-19.3V159.5z"/>
	<path class="st4" d="M378.1,198.1h-9.6l-36.5-55.9v55.9h-9.6v-72.5h9.6l36.6,56.1v-56.1h9.5V198.1z"/>
</g>
<g>
	<path class="st4" d="M686.8,164.4l-8.9,9.2v24.5h-9.6v-72.5h9.6v35.9l32.2-35.9h11.6l-28.5,32l30.8,40.5h-11.5L686.8,164.4z"/>
	<path class="st4" d="M786.6,164.2c0,7.1-1.2,13.3-3.6,18.6s-5.8,9.3-10.2,12.1s-9.5,4.2-15.3,4.2c-5.7,0-10.8-1.4-15.2-4.2
		c-4.4-2.8-7.8-6.8-10.3-12c-2.4-5.2-3.7-11.2-3.8-18.1v-5.2c0-7,1.2-13.1,3.6-18.5c2.4-5.3,5.9-9.4,10.3-12.3
		c4.4-2.8,9.5-4.3,15.2-4.3c5.8,0,10.9,1.4,15.4,4.2c4.4,2.8,7.8,6.9,10.2,12.2c2.4,5.3,3.6,11.5,3.6,18.6V164.2z M777.1,159.5
		c0-8.6-1.7-15.2-5.2-19.8c-3.5-4.6-8.3-6.9-14.5-6.9c-6,0-10.8,2.3-14.3,6.9c-3.5,4.6-5.3,11-5.4,19.1v5.3c0,8.3,1.8,14.9,5.3,19.6
		c3.5,4.8,8.3,7.1,14.5,7.1c6.2,0,11-2.2,14.3-6.7c3.4-4.5,5.1-10.9,5.2-19.3V159.5z"/>
	<path class="st4" d="M810.5,190.3h34.4v7.8h-44v-72.5h9.6V190.3z"/>
	<path class="st4" d="M865.4,190.3h34.4v7.8h-44v-72.5h9.6V190.3z"/>
	<path class="st4" d="M920.9,198.1h-9.6v-72.5h9.6V198.1z"/>
	<path class="st4" d="M979.4,179.1H949l-6.8,19h-9.9l27.7-72.5h8.4l27.7,72.5h-9.8L979.4,179.1z M951.9,171.3h24.7l-12.4-33.9
		L951.9,171.3z"/>
	<path class="st4" d="M1027.2,165.8c-8.2-2.4-14.2-5.3-17.9-8.7c-3.7-3.4-5.6-7.7-5.6-12.7c0-5.7,2.3-10.4,6.8-14.2
		s10.5-5.6,17.8-5.6c5,0,9.4,1,13.3,2.9c3.9,1.9,6.9,4.6,9.1,8c2.1,3.4,3.2,7.1,3.2,11.1h-9.6c0-4.4-1.4-7.9-4.2-10.4
		c-2.8-2.5-6.7-3.8-11.8-3.8c-4.7,0-8.4,1-11,3.1c-2.6,2.1-4,5-4,8.7c0,3,1.3,5.5,3.8,7.5c2.5,2,6.8,3.9,12.8,5.6
		c6,1.7,10.7,3.6,14.1,5.6c3.4,2,5.9,4.4,7.6,7.1c1.6,2.7,2.5,5.9,2.5,9.6c0,5.9-2.3,10.6-6.9,14.1c-4.6,3.5-10.7,5.3-18.4,5.3
		c-5,0-9.6-1-13.9-2.9c-4.3-1.9-7.6-4.5-10-7.8c-2.3-3.3-3.5-7.1-3.5-11.3h9.6c0,4.4,1.6,7.8,4.9,10.4c3.2,2.5,7.6,3.8,13,3.8
		c5,0,8.9-1,11.6-3.1c2.7-2.1,4-4.9,4-8.4s-1.2-6.3-3.7-8.2C1038.3,169.6,1033.8,167.7,1027.2,165.8z"/>
</g>
</svg>
